# xmcd
# Track frame offsets:
# 150
# 13837
# 27599
# 44436
# 62473
# 76085
# 92547
# 109759
# 125696
# 138483
# 154720
# 173132
# 189894
# 206881
# 221918
# 238005
# 254992
# 272654
# 283716
#
# Disc length: 4017 seconds
# Revision: 5
# Processed by: cddbd v1.5.2PL0 Copyright (c) Steve Scherf et al.
# Submitted via: VisiTrax 2.11.2.271 - For more info visit www.synapsa.com
#
DISCID=1b0faf13
DTITLE=Various Artist - Promo Only Country Radio - April 2009
DYEAR=2009
DGENRE=Country
TTITLE0=Dierks Bentley - Sideways (Album Version)
TTITLE1=Alan Jackson - Sissy's Song
TTITLE2=Pat Green - Country Star
TTITLE3=John Rich - Shuttin' Detroit Down
TTITLE4=Sugarland - It Happens (Album Version)
TTITLE5=Jonathan Singleton and The Grove - Livin' In Paradise
TTITLE6=Love And Theft - Runaway
TTITLE7=Chris Young - Gettin' You Home (The Black Dress Song)
TTITLE8=Randy Houser - Boots On
TTITLE9=Caitlin and Will - Even Now
TTITLE10=Tommy Joe Wilson - Tryin' To Find The Sun
TTITLE11=Jessica Simpson - Pray Out Load
TTITLE12=Jessica Harp - Boy Like Me
TTITLE13=Bellamy Brothers - Lord Help Me Be The Kind Of Person (My Dog Think
TTITLE13=s I Am)
TTITLE14=Julia Burton - What A Women Wants
TTITLE15=Ruthie Foster - Stone Love (Album Version)
TTITLE16=Donna Ulisse - The Trouble With You (Album Version)
TTITLE17=Abrams Brothers - Nashville Skyline Rag (Album Version)
TTITLE18=Billy Currington - Don't  (New Acoustic Version)
EXTD=YEAR: 2009
EXTT0=
EXTT1=
EXTT2=
EXTT3=
EXTT4=
EXTT5=
EXTT6=
EXTT7=
EXTT8=
EXTT9=
EXTT10=
EXTT11=
EXTT12=
EXTT13=
EXTT14=
EXTT15=
EXTT16=
EXTT17=
EXTT18=
PLAYORDER=
